# xmcd
#
# Track frame offsets:
#	150
#	33240
#	76932
#	114495
#	135590
#	165210
#	198835
#	230292
#	257620
#	276305
#	315432
#
# Disc length: 4610 seconds
#
# Revision: 1
# Processed by: cddbd v1.5PL3 Copyright (c) Steve Scherf et al.
# Submitted via: CDex 1.50Beta5
#
DISCID=7f12000b
DTITLE=Various Artist - Sakura Hills Disco 3000
DYEAR=2000
DGENRE=Electoric
TTITLE0=Discotique Murphy, SHD 3000/Discotique Murphy's Theme
TTITLE1=Bird, SHD 3000 Orchestra, Shinichi Osawa/Game
TTITLE2=Monday Michiru, SHD 3000, Shinichi Osawa/Real Thing [Sakuragarian Full Orchestra Mix]
TTITLE3=Towa Tei/Happy 2000 [DJ Shodai and 2-Step Remix]
TTITLE4=Kyoto Jazz Massive/Substream
TTITLE5=Christian Urich, DJ Spinna/Always in Heaven When I'm With You
TTITLE6=Satoshi Tomie/Inspired
TTITLE7=Fantastic Plastic Machine/Petitions
TTITLE8=Kathy Sledge, King Britt, Scuba/Ready
TTITLE9=Stephanie Mills/Latin Lover
TTITLE10=Wind and Fire Earth/September 99 [Phats and Small Mutant Disco Vocal Mix]
EXTD=
EXTT0=
EXTT1=
EXTT2=
EXTT3=
EXTT4=
EXTT5=
EXTT6=
EXTT7=
EXTT8=
EXTT9=
EXTT10=
PLAYORDER=
